<svg width="96" height="96" viewBox="0 0 96 96" fill="none" xmlns="http://www.w3.org/2000/svg">
<g id="cookies-svgrepo-com 1" clip-path="url(#clip0_1_20)">
<g id="cookie">
<g id="Group 1">
<path id="Vector" d="M6.06901 46.5675L10.6329 47.4802C12.1517 47.784 13.6781 46.9941 14.3072 45.5786L19.1959 34.5787C19.6097 33.6474 20.4294 32.9589 21.4179 32.7116L23.9648 32.0751C25.4385 31.7066 26.4722 30.3827 26.4722 28.8636V11.2131C26.4722 10.3882 26.7803 9.59306 27.3358 8.9833L33.4847 2.23593C39.0285 0.480367 45.0045 -0.30282 51.2175 0.106305C75.0966 1.67943 94.4408 21.1044 95.8978 44.9906C97.5979 72.864 75.4958 96 47.9897 96C21.7541 96 0.448315 74.9484 0.0103149 48.8173L3.93919 46.8529C4.59769 46.5234 5.34713 46.4231 6.06901 46.5675Z" fill="#FFE6A1"/>
</g>
<g id="Group">
<path id="Vector_2" d="M33.0932 81.1033C33.3846 81.1033 33.6716 81.0866 33.9617 81.0814C35.7804 83.1216 38.4208 84.4136 41.3691 84.4136C45.7116 84.4136 49.3933 81.6218 50.7427 77.739C56.6826 75.3883 62.0402 71.8911 66.5428 67.5133C67.224 67.7186 67.9314 67.8619 68.6796 67.8619C72.7931 67.8619 76.1278 64.5272 76.1278 60.4136C76.1278 58.977 75.7018 57.6474 74.9972 56.5097C75.0476 56.4195 75.1014 56.3319 75.1515 56.2414C80.3181 55.8911 84.4035 51.6002 84.4035 46.3448C84.4035 43.2474 82.9849 40.4828 80.7628 38.6614C80.9734 36.8368 81.0932 34.9847 81.0932 33.1033C81.0932 23.6629 78.3568 14.8667 73.65 7.44319C87.0724 15.9534 95.9897 30.9308 95.9897 48C95.9897 74.5097 74.4994 96 47.9897 96C30.9204 96 15.9433 87.0827 7.43287 73.6603C14.8564 78.3671 23.6526 81.1033 33.0932 81.1033Z" fill="#FFD796"/>
<path id="Vector_3" d="M58.7482 39.7241C56.4629 39.7241 54.6103 37.8715 54.6103 35.5862C54.6103 33.3009 56.4629 31.4483 58.7482 31.4483C61.0336 31.4483 62.8862 33.3009 62.8862 35.5862C62.8862 37.8715 61.0336 39.7241 58.7482 39.7241Z" fill="#FFD796"/>
<path id="Vector_4" d="M14.8862 67.0345C12.6009 67.0345 10.7482 65.1818 10.7482 62.8965C10.7482 60.6112 12.6009 58.7586 14.8862 58.7586C17.1715 58.7586 19.0241 60.6112 19.0241 62.8965C19.0241 65.1818 17.1715 67.0345 14.8862 67.0345Z" fill="#FFD796"/>
<path id="Vector_5" d="M52.5414 67.0344C50.9417 67.0344 49.6449 65.7376 49.6449 64.1379C49.6449 62.5382 50.9417 61.2414 52.5414 61.2414C54.1411 61.2414 55.4379 62.5382 55.4379 64.1379C55.4379 65.7376 54.1411 67.0344 52.5414 67.0344Z" fill="#FFD796"/>
<path id="Vector_6" d="M30.1965 40.5516C28.5968 40.5516 27.3 39.2548 27.3 37.6551C27.3 36.0554 28.5968 34.7586 30.1965 34.7586C31.7962 34.7586 33.093 36.0554 33.093 37.6551C33.093 39.2548 31.7962 40.5516 30.1965 40.5516Z" fill="#FFD796"/>
<path id="Vector_7" d="M41.7827 14.8965C40.183 14.8965 38.8862 13.5997 38.8862 12C38.8862 10.4003 40.183 9.1035 41.7827 9.1035C43.3824 9.1035 44.6792 10.4003 44.6792 12C44.6792 13.5997 43.3824 14.8965 41.7827 14.8965Z" fill="#FFD796"/>
</g>
<g id="Group_2">
<path id="Vector_8" d="M50.3983 42.6349L52.3117 45.8241C53.4555 47.7302 52.4325 50.1996 50.2761 50.7386L44.5806 52.1625C42.8068 52.6059 41.0094 51.5276 40.5662 49.7539L39.9146 47.1476C39.7828 46.6204 39.7828 46.0691 39.9146 45.5419L40.6035 42.7862C41.0319 41.0719 42.7314 39.9964 44.4641 40.3429L48.2089 41.0918C49.1235 41.2749 49.9183 41.8352 50.3983 42.6349Z" fill="#B97850"/>
<path id="Vector_9" d="M40.8446 63.1262L42.8402 66.4521C43.8322 68.1056 43.2068 70.2538 41.4821 71.1161L35.1292 74.2926C33.2351 75.2398 30.951 74.1891 30.4373 72.1346L29.7829 69.5171L29.0181 66.4573C28.542 64.5531 29.8181 62.655 31.7616 62.3773L37.5383 61.5519C38.8564 61.3637 40.1595 61.9841 40.8446 63.1262Z" fill="#B97850"/>
<path id="Vector_10" d="M75.6726 43.3796L78.108 47.4388C78.8895 48.7414 78.6842 50.4086 77.6102 51.4828L73.7773 55.3159C72.3821 56.7111 70.0841 56.5837 68.8515 55.0431L65.5656 50.9355C64.9202 50.1289 64.6884 49.0671 64.9391 48.0647L65.6886 45.0669C65.9989 43.8257 66.9964 42.8747 68.2507 42.6236L72.1849 41.8369C73.5566 41.5624 74.9527 42.18 75.6726 43.3796Z" fill="#B97850"/>
<path id="Vector_11" d="M62.1954 16.5036L64.0734 19.6337C65.163 21.4496 64.2908 23.8076 62.2817 24.4774L58.2064 25.8358C57.0169 26.2322 55.7055 25.9226 54.8188 25.0361L52.6252 22.8426C51.8031 22.0204 51.4725 20.8269 51.7545 19.6989L52.3282 17.4041C52.6967 15.9302 54.0208 14.8963 55.5399 14.8963H59.3571C60.5196 14.8965 61.5971 15.5066 62.1954 16.5036Z" fill="#B97850"/>
<path id="Vector_12" d="M22.2158 42.0881L24.1318 44.0042C25.4244 45.2968 25.4244 47.3929 24.1318 48.6857L23.1941 49.6234C22.1865 50.631 20.6475 50.8808 19.3729 50.2434L13.9509 47.5326C12.5633 46.8386 11.8434 45.2741 12.2198 43.7689L12.4654 42.7866C12.8938 41.0723 14.5933 39.9968 16.326 40.3433L20.5239 41.1829C21.165 41.3108 21.7536 41.6259 22.2158 42.0881Z" fill="#B97850"/>
<path id="Vector_13" d="M34.5246 18.4605L36.723 21.3919C37.5306 22.4685 37.6057 23.9273 36.9133 25.0813L34.8791 28.4715C33.9067 30.0923 31.7769 30.5711 30.2044 29.5228L26.0737 26.769C24.4924 25.7149 24.1215 23.5487 25.2617 22.0284L27.5072 19.0344C27.9112 18.4958 28.4698 18.093 29.1086 17.8802L30.8295 17.3064C32.1814 16.8555 33.6697 17.3205 34.5246 18.4605Z" fill="#B97850"/>
<path id="Vector_14" d="M62.8521 70.7597L65.0136 73.4616C66.4013 75.1961 65.7204 77.778 63.6579 78.6032L60.7545 79.7646C59.9651 80.0803 59.0848 80.0803 58.2956 79.7646L55.0373 78.4611C53.085 77.6803 52.3459 75.3008 53.5121 73.5512L54.0718 72.7118C54.3915 72.2323 54.8304 71.8449 55.3457 71.5871L58.7863 69.8668C60.183 69.1688 61.8771 69.5409 62.8521 70.7597Z" fill="#B97850"/>
</g>
<g id="Group_3">
<path id="Vector_15" d="M69.6698 54.9227L73.5026 51.0898C74.5766 50.0158 74.7821 48.3484 74.0004 47.046L71.565 42.9868C71.3572 42.6407 71.0827 42.3596 70.7792 42.1181L72.1847 41.8372C73.5564 41.5629 74.9527 42.1806 75.6726 43.38L78.108 47.4392C78.8895 48.7417 78.6842 50.409 77.6102 51.4832L73.7773 55.3161C72.4841 56.6092 70.4258 56.5781 69.1489 55.3421C69.3319 55.2208 69.5081 55.0845 69.6698 54.9227Z" fill="#A5694B"/>
<path id="Vector_16" d="M54.891 24.6574L58.9663 23.2991C60.9752 22.6294 61.8478 20.2714 60.7581 18.4554L58.8801 15.3253C58.7846 15.1659 58.6584 15.0349 58.5401 14.8965H59.3572C60.5199 14.8965 61.5975 15.5066 62.1958 16.5037L64.0738 19.6337C65.1636 21.4496 64.2913 23.8076 62.2821 24.4774L58.2067 25.8358C57.0172 26.2322 55.7059 25.9226 54.8192 25.0361L54.5107 24.7277C54.6375 24.7014 54.7661 24.699 54.891 24.6574Z" fill="#A5694B"/>
<path id="Vector_17" d="M41.4397 51.2107L47.1352 49.7869C49.2919 49.2476 50.3149 46.7784 49.1709 44.8723L47.2575 41.6831C47.0297 41.3034 46.7271 40.983 46.3781 40.7259L48.2089 41.0921C49.1233 41.2749 49.9185 41.8354 50.3983 42.6352L52.3117 45.8244C53.4555 47.7306 52.4325 50.1999 50.2761 50.739L44.5806 52.1629C43.3807 52.4629 42.1807 52.0556 41.3859 51.2188C41.4039 51.2143 41.4217 51.2152 41.4397 51.2107Z" fill="#A5694B"/>
<path id="Vector_18" d="M31.7871 28.1852L33.8212 24.795C34.5137 23.6409 34.4385 22.1826 33.6309 21.1056L31.4325 18.1744C31.1917 17.8532 30.8929 17.6016 30.5689 17.3929L30.8297 17.3061C32.1816 16.8555 33.6699 17.3205 34.5249 18.4603L36.7232 21.3915C37.5307 22.4683 37.6059 23.9269 36.9135 25.0809L34.8793 28.4711C33.9101 30.0864 31.7919 30.5655 30.2211 29.5311C30.8505 29.2691 31.4077 28.8173 31.7871 28.1852Z" fill="#A5694B"/>
<path id="Vector_19" d="M20.5374 49.4029C21.8303 48.1101 21.8303 46.0142 20.5374 44.7214L18.6214 42.8053C18.1594 42.3433 17.5708 42.0281 16.9298 41.9001L13.3963 41.1934C14.1523 40.4749 15.2318 40.1241 16.3262 40.3431L20.5241 41.1827C21.165 41.3109 21.7536 41.6259 22.2158 42.0879L24.1318 44.004C25.4244 45.2968 25.4244 47.3927 24.1318 48.6855L23.1941 49.6232C22.2489 50.5684 20.8427 50.8161 19.6194 50.3213L20.5374 49.4029Z" fill="#A5694B"/>
<path id="Vector_20" d="M37.3813 70.8384C39.1059 69.9761 39.7316 67.8279 38.7394 66.1744L36.7438 62.8487C36.4821 62.4127 36.1121 62.0822 35.7041 61.8142L37.5379 61.5523C38.8564 61.3639 40.1593 61.9841 40.8444 63.1262L42.84 66.4521C43.8321 68.1056 43.2066 70.2538 41.4819 71.1161L35.1291 74.2926C33.8629 74.9257 32.4339 74.6524 31.4648 73.797L37.3813 70.8384Z" fill="#A5694B"/>
<path id="Vector_21" d="M57.4442 79.2113L60.3476 78.0499C62.4099 77.2251 63.0908 74.6428 61.7033 72.9083L59.5418 70.2064C59.4045 70.0348 59.2504 69.8848 59.0876 69.7476C60.42 69.2374 61.9455 69.6263 62.8521 70.7597L65.0136 73.4616C66.4013 75.1961 65.7204 77.778 63.6579 78.6032L60.7545 79.7646C59.9651 80.0803 59.0848 80.0803 58.2956 79.7646L57.1374 79.3013C57.24 79.2714 57.3444 79.2512 57.4442 79.2113Z" fill="#A5694B"/>
</g>
<path id="Vector_22" d="M82.7503 67.8604C82.9984 67.8604 83.2515 67.8039 83.4889 67.6858C84.3068 67.2769 84.6383 66.2829 84.2291 65.4651L82.5739 62.1547C82.1648 61.3369 81.1733 61.0087 80.3531 61.4145C79.5353 61.8236 79.2038 62.8174 79.6129 63.6352L81.2681 66.9456C81.5582 67.5257 82.1424 67.8604 82.7503 67.8604Z" fill="#C98850"/>
<path id="Vector_23" d="M52.9552 89.3792H54.6105C55.5246 89.3792 56.2658 88.6389 56.2658 87.7239C56.2658 86.8091 55.5246 86.0687 54.6105 86.0687H52.9552C52.0412 86.0687 51.3 86.8089 51.3 87.7239C51.3 88.6389 52.0412 89.3792 52.9552 89.3792Z" fill="#925F4A"/>
<path id="Vector_24" d="M59.5776 57.9309C59.8256 57.9309 60.0787 57.8745 60.3161 57.7564C61.134 57.3473 61.4655 56.3533 61.0564 55.5356L59.4011 52.2253C58.9929 51.4091 58.0012 51.0793 57.1804 51.4851C56.3625 51.8942 56.031 52.8879 56.4401 53.7058L58.0954 57.0161C58.3854 57.5964 58.9699 57.9309 59.5776 57.9309Z" fill="#C98850"/>
<g id="Group_4">
<path id="Vector_25" d="M69.5085 31.4483C69.7566 31.4483 70.0097 31.3918 70.2471 31.2737L73.5574 29.6185C74.3753 29.2093 74.7068 28.2156 74.2976 27.3977C73.8894 26.5815 72.897 26.25 72.0769 26.6575L68.7666 28.3125C67.9487 28.7216 67.6172 29.7154 68.0263 30.5333C68.3164 31.1136 68.9008 31.4483 69.5085 31.4483Z" fill="#925F4A"/>
<path id="Vector_26" d="M49.6448 8.27569H52.9551C53.8691 8.27569 54.6103 7.53544 54.6103 6.62044C54.6103 5.70544 53.8691 4.96519 52.9551 4.96519H49.6448C48.7307 4.96519 47.9895 5.70544 47.9895 6.62044C47.9895 7.53544 48.7307 8.27569 49.6448 8.27569Z" fill="#925F4A"/>
</g>
<path id="Vector_27" d="M43.0224 33.1033C43.6303 33.1033 44.2146 32.7688 44.5046 32.1885L46.1599 28.8782C46.569 28.0603 46.2375 27.0662 45.4196 26.6574C44.6001 26.25 43.6069 26.5815 43.1989 27.3977L41.5436 30.708C41.1345 31.5259 41.466 32.52 42.2839 32.9287C42.5216 33.0469 42.7744 33.1033 43.0224 33.1033Z" fill="#C98850"/>
<g id="Group_5">
<path id="Vector_28" d="M88.4464 41.2082C88.6689 41.0985 88.8709 40.9359 89.0319 40.725C89.5851 39.9968 89.4428 38.9586 88.7143 38.4056L85.7664 36.1676C85.0388 35.6143 84.0013 35.7579 83.4471 36.4853C82.8939 37.2135 83.0363 38.2517 83.7647 38.8046L86.7124 41.0424C87.2293 41.4347 87.9013 41.4767 88.4464 41.2082Z" fill="#925F4A"/>
<path id="Vector_29" d="M26.4724 59.5862C26.8959 59.5862 27.3195 59.4246 27.6426 59.1013L30.9529 55.791C31.5994 55.1445 31.5994 54.097 30.9529 53.4505C30.3064 52.804 29.2588 52.804 28.6123 53.4505L25.302 56.7608C24.6555 57.4073 24.6555 58.4548 25.302 59.1013C25.6254 59.4246 26.049 59.5862 26.4724 59.5862Z" fill="#925F4A"/>
</g>
<path id="Vector_30" d="M23.1621 96.1379C23.5856 96.1379 24.0092 95.9763 24.3322 95.6531C24.9787 95.0066 24.9787 93.959 24.3322 93.3125L22.677 91.6573C22.0305 91.0108 20.9829 91.0108 20.3364 91.6573C19.6899 92.3038 19.6899 93.3513 20.3364 93.9978L21.9917 95.6531C22.3151 95.9763 22.7385 96.1379 23.1621 96.1379Z" fill="#C98850"/>
</g>
<g id="crumbs">
<g id="Group 2">
<g id="Group_6">
<path id="Vector_31" d="M19.8518 6.62063V10.7966C19.8518 11.9678 18.6692 12.7684 17.5819 12.3334L12.6163 10.3472C11.988 10.0958 11.5759 9.48713 11.5759 8.81044V6.62063C11.5759 5.70657 12.3171 4.96538 13.2311 4.96538H18.1967C19.1106 4.96538 19.8518 5.70657 19.8518 6.62063Z" fill="#FFE6A1"/>
<path id="Vector_32" d="M16.3131 19.6695L17.3692 27.0634C17.6177 28.8026 16.464 30.4331 14.7414 30.7776L11.7101 31.3838C10.3946 31.647 9.05062 31.0901 8.30643 29.9739L7.16644 28.2639C6.576 27.378 6.44737 26.2622 6.82125 25.2654L10.2744 16.0571C10.704 14.9119 12.1731 14.5937 13.038 15.4586L15.3765 17.7969C15.8831 18.3034 16.2116 18.9606 16.3131 19.6695Z" fill="#FFE6A1"/>
</g>
</g>
<g id="Crumbs">
<path id="Vector_33" d="M8.01506 28.4436L11.0464 27.8374C12.7691 27.4928 13.9226 25.8623 13.6742 24.1232L12.618 16.7295C12.5237 16.0701 12.2162 15.4678 11.7688 14.9777C12.2181 14.955 12.6793 15.0996 13.038 15.4581L15.3767 17.7966C15.8831 18.303 16.2118 18.9602 16.3129 19.6691L17.3691 27.0628C17.6175 28.8023 16.4638 30.4326 14.7412 30.777L11.7099 31.3832C10.3946 31.6461 9.05043 31.0896 8.30625 29.9734L7.30893 28.4775C7.54368 28.4822 7.77862 28.491 8.01506 28.4436Z" fill="#FFD796"/>
<path id="Vector_34" d="M14.2716 9.02288C15.3589 9.45769 16.5414 8.65706 16.5414 7.48613V4.96538H18.1967C19.1108 4.96538 19.8519 5.70657 19.8519 6.62063V10.7966C19.8519 11.9678 18.6694 12.7684 17.5821 12.3334L12.6165 10.3472C11.9882 10.0958 11.5761 9.48731 11.5761 8.81044V7.94475L14.2716 9.02288Z" fill="#FFD796"/>
<path id="Vector_35" d="M7.44037 36.0981L8.41874 38.0548C8.65162 38.5208 8.65162 39.0692 8.41874 39.5351L7.97231 40.4284C7.527 41.3188 6.40218 41.6177 5.5738 41.0655L2.90549 39.2867C2.44499 38.9796 2.16843 38.4628 2.16843 37.9095V36.1262C2.16843 34.9965 3.27524 34.1987 4.34699 34.5561L6.48356 35.2682C6.89981 35.4068 7.24406 35.7053 7.44037 36.0981Z" fill="#FFD796"/>
</g>
</g>
</g>
<defs>
<clipPath id="clip0_1_20">
<rect width="96" height="96" fill="white" transform="matrix(-1 0 0 1 96 0)"/>
</clipPath>
</defs>
</svg>
